# xmcd CD database file
#
# Track frame offsets:
#	150
#	16207
#	40709
#	62820
#	81609
#	106117
#	129813
#	144977
#	172766
#	186436
#	209035
#	228641
#	253821
#	273845
#
# Disc length: 3939 seconds
#
# Revision: 2
# Processed by: cddbd v1.4PL0 Copyright (c) Steve Scherf et al.
# Submitted via: CDex 1.50
#
DISCID=c10f610e
DTITLE=Bugs Henderson and the Shuffle Kings - Four Tens Strike Again
DYEAR=1996
DGENRE=Blues
TTITLE0=Lucille
TTITLE1=Can't Find Love
TTITLE2=Highway 61 Revisited
TTITLE3=Black Spring
TTITLE4=Sunshine of Your Love
TTITLE5=Lost in the Shuffle
TTITLE6=Don't Do It
TTITLE7=Just Like  A Woman
TTITLE8=Crippled Gnat Bounce
TTITLE9=Blue Casino
TTITLE10=Four Tens Strike Again
TTITLE11=Deal 'Em
TTITLE12=One More Hand
TTITLE13=Audio Liner Notes
EXTD=YEAR: 1996
EXTT0=
EXTT1=
EXTT2=
EXTT3=
EXTT4=
EXTT5=
EXTT6=
EXTT7=
EXTT8=
EXTT9=
EXTT10=
EXTT11=
EXTT12=
EXTT13=
PLAYORDER=
